<?xml version="1.0" encoding="UTF-8" standalone="no"?>
<!DOCTYPE svg PUBLIC "-//W3C//DTD SVG 1.1//EN"
 "http://www.w3.org/Graphics/SVG/1.1/DTD/svg11.dtd">
<!-- Generated by graphviz version 2.43.0 (0)
 -->
<!-- Title: %3 Pages: 1 -->
<svg width="308pt" height="131pt"
 viewBox="0.00 0.00 308.09 131.00" xmlns="http://www.w3.org/2000/svg" xmlns:xlink="http://www.w3.org/1999/xlink">
<g id="graph0" class="graph" transform="scale(1 1) rotate(0) translate(4 127)">
<title>%3</title>
<polygon fill="white" stroke="transparent" points="-4,4 -4,-127 304.09,-127 304.09,4 -4,4"/>
<!-- /page2.html -->
<g id="node1" class="node">
<title>/page2.html</title>
<ellipse fill="none" stroke="black" cx="96.29" cy="-105" rx="66.09" ry="18"/>
<text text-anchor="middle" x="96.29" y="-101.3" font-family="Times,serif" font-size="14.00">/page2.html</text>
</g>
<!-- /page1.html -->
<g id="node2" class="node">
<title>/page1.html</title>
<ellipse fill="none" stroke="black" cx="66.29" cy="-18" rx="66.09" ry="18"/>
<text text-anchor="middle" x="66.29" y="-14.3" font-family="Times,serif" font-size="14.00">/page1.html</text>
</g>
<!-- /page2.html&#45;&gt;/page1.html -->
<g id="edge1" class="edge">
<title>/page2.html&#45;&gt;/page1.html</title>
<path fill="none" stroke="black" d="M90.22,-86.8C86.08,-75.05 80.5,-59.24 75.77,-45.84"/>
<polygon fill="black" stroke="black" points="78.98,-44.44 72.36,-36.18 72.38,-46.77 78.98,-44.44"/>
<text text-anchor="middle" x="88.29" y="-57.8" font-family="Times,serif" font-size="14.00">1</text>
</g>
<!-- /page3.html -->
<g id="node3" class="node">
<title>/page3.html</title>
<ellipse fill="none" stroke="black" cx="217.29" cy="-18" rx="66.09" ry="18"/>
<text text-anchor="middle" x="217.29" y="-14.3" font-family="Times,serif" font-size="14.00">/page3.html</text>
</g>
<!-- /page2.html&#45;&gt;/page3.html -->
<g id="edge2" class="edge">
<title>/page2.html&#45;&gt;/page3.html</title>
<path fill="none" stroke="black" d="M116.78,-87.8C129.65,-77.79 146.71,-64.83 162.29,-54 168.89,-49.41 176.06,-44.68 182.98,-40.23"/>
<polygon fill="black" stroke="black" points="184.99,-43.1 191.54,-34.78 181.23,-37.19 184.99,-43.1"/>
<text text-anchor="middle" x="167.29" y="-57.8" font-family="Times,serif" font-size="14.00">1</text>
</g>
<!-- /page3.html&#45;&gt;/page2.html -->
<g id="edge3" class="edge">
<title>/page3.html&#45;&gt;/page2.html</title>
<path fill="none" stroke="black" d="M204.96,-35.92C196.63,-46.46 184.89,-59.72 172.29,-69 163.61,-75.4 153.56,-81.03 143.68,-85.8"/>
<polygon fill="black" stroke="black" points="141.93,-82.75 134.31,-90.11 144.86,-89.11 141.93,-82.75"/>
<text text-anchor="middle" x="194.29" y="-57.8" font-family="Times,serif" font-size="14.00">1</text>
</g>
<!-- /image.jpg -->
<g id="node4" class="node">
<title>/image.jpg</title>
<ellipse fill="none" stroke="black" cx="240.29" cy="-105" rx="59.59" ry="18"/>
<text text-anchor="middle" x="240.29" y="-101.3" font-family="Times,serif" font-size="14.00">/image.jpg</text>
</g>
<!-- /image.jpg&#45;&gt;/page3.html -->
<g id="edge4" class="edge">
<title>/image.jpg&#45;&gt;/page3.html</title>
<path fill="none" stroke="black" d="M235.64,-86.8C232.46,-75.05 228.18,-59.24 224.56,-45.84"/>
<polygon fill="black" stroke="black" points="227.93,-44.91 221.94,-36.18 221.18,-46.74 227.93,-44.91"/>
<text text-anchor="middle" x="235.29" y="-57.8" font-family="Times,serif" font-size="14.00">1</text>
</g>
</g>
</svg>
